<svg xmlns="http://www.w3.org/2000/svg" width="980" height="560" viewBox="0 0 980 560">
  <rect width="100%" height="100%" fill="#ffffff"/>
  <text x="70" y="42" font-family="Segoe UI, Arial" font-size="22" font-weight="700">Experiment 8: Sample-Level vLLM Throughput</text>
  <text x="70" y="68" font-family="Segoe UI, Arial" font-size="13" fill="#4b5563">Secondary indicator; use video_sec/sec for normalized final reporting</text>
  <line x1="95" y1="430" x2="895" y2="430" stroke="#222"/>
  <line x1="95" y1="95" x2="95" y2="430" stroke="#222"/>
  <g font-family="Segoe UI, Arial" font-size="12" fill="#374151">
    <line x1="89" y1="430" x2="895" y2="430" stroke="#e5e7eb"/><text x="82" y="434" text-anchor="end">0</text>
    <line x1="89" y1="374.2" x2="895" y2="374.2" stroke="#e5e7eb"/><text x="82" y="378.2" text-anchor="end">2</text>
    <line x1="89" y1="318.3" x2="895" y2="318.3" stroke="#e5e7eb"/><text x="82" y="322.3" text-anchor="end">4</text>
    <line x1="89" y1="262.5" x2="895" y2="262.5" stroke="#e5e7eb"/><text x="82" y="266.5" text-anchor="end">6</text>
    <line x1="89" y1="206.7" x2="895" y2="206.7" stroke="#e5e7eb"/><text x="82" y="210.7" text-anchor="end">8</text>
    <line x1="89" y1="150.8" x2="895" y2="150.8" stroke="#e5e7eb"/><text x="82" y="154.8" text-anchor="end">10</text>
    <line x1="89" y1="95" x2="895" y2="95" stroke="#e5e7eb"/><text x="82" y="99" text-anchor="end">12</text>
    <text x="110" y="88" font-family="Segoe UI, Arial" font-size="12" fill="#4b5563">samples/min</text>
  </g>
  <g font-family="Segoe UI, Arial">
    <rect x="178" y="359.4" width="100" height="70.6" fill="#2f6f9f"/>
    <text x="228" y="347" text-anchor="middle" font-size="13" font-weight="700">2.529</text>
    <text x="228" y="460" text-anchor="middle" font-size="15">c=1</text>
    <text x="228" y="482" text-anchor="middle" font-size="12" fill="#4b5563">p95 94.250s</text>
    <rect x="348" y="239.4" width="100" height="190.6" fill="#2f6f9f"/>
    <text x="398" y="227" text-anchor="middle" font-size="13" font-weight="700">6.829</text>
    <text x="398" y="460" text-anchor="middle" font-size="15">c=2</text>
    <text x="398" y="482" text-anchor="middle" font-size="12" fill="#4b5563">p95 72.772s</text>
    <rect x="518" y="133.0" width="100" height="297.0" fill="#2f6f9f"/>
    <text x="568" y="121" text-anchor="middle" font-size="13" font-weight="700">10.633</text>
    <text x="568" y="460" text-anchor="middle" font-size="15">c=3</text>
    <text x="568" y="482" text-anchor="middle" font-size="12" fill="#4b5563">p95 32.940s</text>
    <rect x="688" y="302.9" width="100" height="127.1" fill="#2f6f9f"/>
    <text x="738" y="290" text-anchor="middle" font-size="13" font-weight="700">4.553</text>
    <text x="738" y="460" text-anchor="middle" font-size="15">c=4</text>
    <text x="738" y="482" text-anchor="middle" font-size="12" fill="#4b5563">p95 105.372s</text>
  </g>
  <g font-family="Segoe UI, Arial" font-size="13">
    <rect x="720" y="115" width="15" height="15" fill="#2f6f9f"/><text x="744" y="127">Throughput</text>
    <text x="720" y="154" fill="#4b5563">Best setting: concurrency 3</text>
  </g>
</svg>
